<?xml version="1.0" encoding="utf-8"?>
<!-- Generator: Adobe Illustrator 22.0.0, SVG Export Plug-In . SVG Version: 6.00 Build 0)  -->
<svg version="1.1" id="Layer_1" xmlns="http://www.w3.org/2000/svg" xmlns:xlink="http://www.w3.org/1999/xlink" x="0px" y="0px"
	 viewBox="0 0 172 88" style="enable-background:new 0 0 172 88;" xml:space="preserve">
<style type="text/css">
	.st0{fill:#1D1D1B;}
	.st1{fill:#E6352B;}
</style>
<g id="XMLID_3620_">
	<g id="XMLID_3720_">
		<g id="XMLID_3721_">
			<g id="XMLID_3723_">
				<path id="XMLID_3757_" class="st0" d="M0.2,3.3h10.7c8.8,0,14.4,2.6,14.4,11.3c0,7-5.9,11.3-13.2,11.3H8.9v12.4l-8.8,0.9
					L0.2,3.3L0.2,3.3z M9,18.5h2.6c3.2,0,5-1.4,5-3.8c0-2.5-1.8-3.8-5-3.8H9V18.5z"/>
				<path id="XMLID_3754_" class="st0" d="M27.3,25.4c0-8.2,7-14.2,14.8-14.2c7.8,0,14.8,6,14.8,14.2s-7,14.2-14.8,14.2
					C34.3,39.6,27.3,33.7,27.3,25.4z M42.1,32.2c3.6,0,6.8-2.9,6.8-6.6s-3.1-6.6-6.8-6.6c-3.6,0-6.7,2.9-6.7,6.6
					S38.6,32.2,42.1,32.2z"/>
				<path id="XMLID_3752_" class="st0" d="M69.1,2v36.4l-8,0.9V2.7L69.1,2z"/>
				<path id="XMLID_3749_" class="st0" d="M89.1,0.5L81,8.1h-6.2l5-7.7C79.7,0.5,89.1,0.5,89.1,0.5z M83.5,38.4l-8,0.9V12.6l8-0.9
					V38.4z"/>
				<path id="XMLID_3747_" class="st0" d="M87.3,19.2l1.7-6.7h2.6V7.2l8-3.1v8.4h4.6v6.7h-4.6v9.3c0,2.6,2,3.4,4.3,3.4
					c0.8,0,1.8-0.2,2.1-0.3l-2.4,7.9c-0.4,0.1-0.9,0.1-1.2,0.1c-7.1,0-10.9-3.4-10.9-10.5v-9.9H87.3z"/>
				<path id="XMLID_3745_" class="st0" d="M118,38.4l-8,0.9V12.6l8-0.9V38.4z"/>
				<path id="XMLID_3743_" class="st0" d="M142,20.4c-1.4-1.2-3.4-1.9-5.2-1.9c-3.6,0-6.6,2.6-6.6,6.4c0,4.2,2.6,7.5,6.8,7.5
					c1.9,0,3.6-0.6,5.1-1.9l4.4,5.8c-2.1,2.3-6.7,3.4-9.6,3.4c-9.2,0-14.7-6.5-14.7-13.7c0-8.7,6.1-14.7,14.7-14.7
					c3.3,0,6.8,1.1,9.4,3.2L142,20.4z"/>
				<path id="XMLID_3740_" class="st0" d="M152.3,12.5c2.1-0.8,5.1-1.2,7.3-1.2c6.6,0,11.2,2.7,11.2,9.3v17.8l-7,0.9v-2.6h-0.1
					c-1.5,2.4-3.9,3-6.6,3c-6,0-9.3-4-9.3-9.6c0-5.4,4.4-8.7,9.6-8.7c2,0,4.3,0.8,6,2c0.1-0.3,0.1-0.5,0.1-0.9
					c0-3.7-1.7-4.4-5.2-4.4c-2.4,0-4.8,0.7-7,1.6L152.3,12.5z M159.3,33.4c2.2,0,4-1.3,4-3.5s-1.8-3.5-4-3.5c-2.3,0-4.1,1.3-4.1,3.5
					C155.3,32.2,157.1,33.4,159.3,33.4z"/>
				<path id="XMLID_3737_" class="st0" d="M43.9,65.6c0,10.3-8.6,18.5-18.9,18.5S6.1,75.9,6.1,65.6S14.7,47.1,25,47.1
					S43.9,55.3,43.9,65.6z M14.9,65.6c0,5.4,4.5,10.5,10.1,10.5c5.6,0,10.1-5.1,10.1-10.5S30.6,55.1,25,55.1S14.9,60.2,14.9,65.6z"
					/>
				<path id="XMLID_3734_" class="st0" d="M55,46.5v12h0.1c1.5-1.9,4.3-2.6,6.9-2.6c7.9,0,13.5,6.8,13.5,14.4
					c0,7.8-6.4,13.9-14.1,13.9c-9.2,0-14.6-5.4-14.6-14.7V47.3L55,46.5z M60.7,76.7c3.9,0,6.8-3.1,6.8-6.6s-2.9-6.6-6.8-6.6
					c-4,0-6.8,3.1-6.8,6.6S56.8,76.7,60.7,76.7z"/>
				<path id="XMLID_3732_" class="st0" d="M78.9,57.1l7.1-0.9v5.1h0.2c1.5-4.6,4.2-5.5,8.6-5.5l-2.3,8c-4.1-0.1-5.5,1.5-5.5,5.5
					v13.5l-8,0.9L78.9,57.1L78.9,57.1z"/>
				<path id="XMLID_3729_" class="st0" d="M105,75c0.9,1.3,2.8,1.9,4.4,1.9c2.8,0,5.5-1.3,7.7-3.1l4.3,6.2
					c-3.5,2.5-7.5,4.2-12.1,4.2c-8.5,0-14.3-7.4-14.3-13.8c0-7.9,6.3-14.6,14-14.6c5.6,0,10.8,3.2,13.2,8.1L105,75z M112.4,63.7
					c-0.9-0.9-2.2-1-3.6-1c-3.5,0-6.2,3.3-6.2,6.7v0.9L112.4,63.7z"/>
				<path id="XMLID_3727_" class="st0" d="M124.8,57.1l7.1-0.9v5.1h0.1c1.5-4.6,4.2-5.5,8.6-5.5l-2.3,8c-4.1-0.1-5.5,1.5-5.5,5.5
					v13.5l-8,0.9L124.8,57.1L124.8,57.1z"/>
				<path id="XMLID_3724_" class="st0" d="M145.1,57c2.1-0.8,5.1-1.2,7.3-1.2c6.6,0,11.2,2.7,11.2,9.3v17.8l-7,0.9v-2.6h-0.1
					c-1.5,2.4-3.9,3-6.6,3c-6,0-9.3-4-9.3-9.6c0-5.4,4.4-8.7,9.6-8.7c2,0,4.3,0.8,6,2c0.1-0.3,0.1-0.5,0.1-0.9
					c0-3.7-1.7-4.4-5.2-4.4c-2.4,0-4.8,0.7-7,1.6L145.1,57z M152.1,78c2.2,0,4-1.3,4-3.5c0-2.2-1.8-3.5-4-3.5s-4.1,1.3-4.1,3.5
					C148,76.7,149.8,78,152.1,78z"/>
			</g>
			<circle id="XMLID_3722_" class="st0" cx="114" cy="5.2" r="3.6"/>
		</g>
	</g>
</g>
</svg>
